
<svg xmlns="http://www.w3.org/2000/svg" viewBox="0 0 336.17 89">
	<defs>
		<style>.red-fill{fill:#e00;} .white-fill{fill:#fff;} .black-fill{fill:#000;}</style>
	</defs>
	<title>Croix-Rouge canadienne accueil</title>
	<g data-name="Layer 2">
		<g data-name="Layer 1">
			<g data-name="Layer 2">
				<g  data-name="Layer 1-2" class="white-fill">
					<polygon class="red-fill" points="29.67 0.88 29.67 30.25 0 30.25 0 59.63 29.67 59.63 29.67 89 59.19 89 59.19 59.63 88.71 59.63 88.71 30.25 59.19 30.25 59.19 0.88 29.67 0.88"/>
					<path class="black-fill" d="M167,9h-4.85a4.52,4.52,0,0,0-4.63-4.42h-.22c-3.52,0-5.73,3.08-5.73,7.93s2.2,7.93,5.73,7.93a4.76,4.76,0,0,0,5-4.51v0h5c-.44,5.58-4.26,8.81-10,8.81-6.61,0-10.72-4.7-10.72-12.34S150.68,0,157.44,0C163,.29,166.84,4,167,9Z"/>
					<path class="black-fill" d="M181.23,7.49v4a5.51,5.51,0,0,0-1.47-.15c-2.79,0-4.41,1.76-4.41,5.14v7.93h-4.7V7.64h4.26V10h0a5.23,5.23,0,0,1,4.55-2.64A6.05,6.05,0,0,1,181.23,7.49Z"/>
					<path class="black-fill" d="M199.59,16c0,5.43-3.38,9-8.67,9s-8.67-3.52-8.67-9,3.38-9,8.67-9S199.59,10.57,199.59,16Zm-12.48,0c0,3.23,1.47,5.29,3.82,5.29s3.82-2.06,3.82-5.29-1.47-5.29-3.82-5.29S187.11,12.78,187.11,16Z"/>
					<path class="black-fill" d="M203,4.85v-4h4.7v4Zm0,19.53V7.64h4.7V24.38Z"/>
					<path class="black-fill" d="M226.91,24.38h-5.43l-3.23-5.73h0L215,24.38h-5.43l5.73-8.67-5.43-8.22h5.29l2.94,4.85h0L221,7.49h5.29l-5.43,8.22Z"/>
					<path class="black-fill" d="M227.79,17.48V13.81h8.67v3.67Z"/>
					<path class="black-fill" d="M248.79.88c6,0,8.67,2.5,8.67,6.61a5.58,5.58,0,0,1-4.26,5.73h0c1.62.59,2.5,1.62,3.52,4.55l2.35,6.46h-5.29l-1.91-5.58c-.88-2.5-1.76-3.38-4.11-3.38h-2.64v9.11h-4.85V.88ZM245,11.6h3.52c2.94,0,4.11-1.32,4.11-3.52S251,4.85,248.2,4.85H245Z"/>
					<path class="black-fill" d="M277.57,16c0,5.43-3.38,9-8.67,9s-8.67-3.52-8.67-9,3.38-9,8.67-9S277.57,10.57,277.57,16Zm-12.34,0c0,3.23,1.47,5.29,3.82,5.29s3.82-2.06,3.82-5.29-1.47-5.29-3.82-5.29S265.24,12.78,265.24,16Z"/>
					<path class="black-fill" d="M280.81,17.92V7.64h4.7v9.84c0,2.5,1.17,3.67,2.94,3.67s3.38-1.47,3.38-4.55v-9h4.7V24.38h-4.41V22.32h0a6,6,0,0,1-5,2.5C283.3,24.82,280.81,22.47,280.81,17.92Z"/>
					<path class="black-fill" d="M311.65,9.84h0V7.64h4.41V23.35c0,5.14-3.08,7.49-8.08,7.49-4.7,0-7.2-2.06-7.49-5.29h4.7c.15,1.32,1.17,2.06,2.94,2.06,2.06,0,3.38-1,3.38-4.26V21.88h0a5.32,5.32,0,0,1-4.7,2.5c-4.26,0-6.9-3.23-6.9-8.52s2.79-8.52,7-8.52A4.89,4.89,0,0,1,311.65,9.84Zm-6.9,5.87c0,2.94,1.32,4.7,3.38,4.7s3.52-1.91,3.52-4.7-1.47-4.7-3.52-4.7S304.74,12.78,304.74,15.71Z"/>
					<path class="black-fill" d="M331.18,19.24h4.7c-.73,3.08-3.52,5.58-8.08,5.58-5.29,0-8.37-3.67-8.37-9.11,0-5,3.08-8.81,8.37-8.81a7.81,7.81,0,0,1,7.78,5.58,16.52,16.52,0,0,1,.59,4.26H324c.15,3.52,1.76,4.7,3.82,4.7S331,20.71,331.18,19.24Zm-7-5.14h7.34a3.61,3.61,0,0,0-3.55-3.67h-.12C326,10.28,324.57,11.46,324.13,14.1Z"/>
					<path class="black-fill" d="M162.87,49.05H158A3.14,3.14,0,0,0,155,45.82h0c-2.2,0-3.67,2.06-3.67,5.29s1.32,5.29,3.67,5.29c1.76,0,2.94-1.32,3.08-3.52h4.85c-.29,4.26-3.38,7-7.93,7-5.14,0-8.52-3.52-8.52-9s3.38-9,8.52-9A8.11,8.11,0,0,1,162.87,49.05Z"/>
					<path class="black-fill" d="M179.91,48.91v6a17.42,17.42,0,0,0,.44,4.55h-4.26a11.34,11.34,0,0,1-.29-2.2h0a6.36,6.36,0,0,1-5.43,2.64c-3.52,0-5.73-2.2-5.73-5.14s1.62-4.55,6.61-5.29c1.32-.15,3.08-.44,4.26-.44v-.59a2.6,2.6,0,0,0-2.79-2.94,2.48,2.48,0,0,0-2.79,2.5h-4.55c.15-3.23,2.5-5.73,7.34-5.73S179.91,44.65,179.91,48.91ZM175.5,52a26.21,26.21,0,0,0-3.38.29c-1.91.29-2.79,1-2.79,2.35s.88,2.06,2.5,2.06a3.33,3.33,0,0,0,2.64-1,4.08,4.08,0,0,0,1-3.23Z"/>
					<path class="black-fill" d="M199.88,49.35V59.63h-4.7V49.79c0-2.5-1.17-3.67-2.94-3.67s-3.38,1.47-3.38,4.55v9h-4.7V42.88h4.41v2.06h0a6,6,0,0,1,5-2.5C197.39,42.44,199.88,44.79,199.88,49.35Z"/>
					<path class="black-fill" d="M218.09,48.91v6a17.42,17.42,0,0,0,.44,4.55h-4.26a11.34,11.34,0,0,1-.29-2.2h0a6.36,6.36,0,0,1-5.43,2.64c-3.52,0-5.73-2.2-5.73-5.14s1.62-4.55,6.61-5.29c1.32-.15,3.08-.44,4.26-.44v-.59a2.6,2.6,0,0,0-2.79-2.94,2.48,2.48,0,0,0-2.79,2.5h-4.55c.15-3.23,2.5-5.73,7.34-5.73S218.09,44.65,218.09,48.91ZM213.54,52a26.21,26.21,0,0,0-3.38.29c-1.91.29-2.79,1-2.79,2.35s.88,2.06,2.5,2.06a3.33,3.33,0,0,0,2.64-1,4.08,4.08,0,0,0,1-3.23Z"/>
					<path class="black-fill" d="M233.22,59.63v-2.2h0a5.52,5.52,0,0,1-4.85,2.64c-4.26,0-7-3.52-7-8.81s2.79-8.81,6.9-8.81a5.73,5.73,0,0,1,4.85,2.5h0V36.13h4.7v23.5Zm-7-8.37c0,3.23,1.47,5.29,3.67,5.29s3.52-1.91,3.52-5.29S231.9,46,229.84,46C227.49,46,226.17,48,226.17,51.26Z"/>
					<path class="black-fill" d="M242.18,40.09v-4h4.7v4Zm0,19.53V42.88h4.7V59.63Z"/>
					<path class="black-fill" d="M262,54.49h4.7c-.73,3.08-3.52,5.58-8.08,5.58-5.29,0-8.37-3.67-8.37-9.11,0-5,3.08-8.81,8.37-8.81a7.81,7.81,0,0,1,7.78,5.58A16.52,16.52,0,0,1,267,52H254.81c.15,3.52,1.76,4.7,3.82,4.7S261.86,56,262,54.49Zm-7-5.14h7.34a3.61,3.61,0,0,0-3.55-3.67h-.12c-1.76-.15-3.23,1-3.67,3.67Z"/>
					<path class="black-fill" d="M286.09,49.35V59.63h-4.7V49.79c0-2.5-1.17-3.67-2.94-3.67s-3.38,1.47-3.38,4.55v9h-4.7V42.88h4.41v2.06h0a6,6,0,0,1,5-2.5C283.6,42.44,286.09,44.79,286.09,49.35Z"/>
					<path class="black-fill" d="M305.92,49.35V59.63h-4.7V49.79c0-2.5-1.17-3.67-2.94-3.67s-3.38,1.47-3.38,4.55v9h-4.7V42.88h4.41v2.06h0a6,6,0,0,1,5-2.5C303.57,42.44,305.92,44.79,305.92,49.35Z"/>
					<path class="black-fill" d="M320.9,54.49h4.7c-.73,3.08-3.52,5.58-8.08,5.58-5.29,0-8.37-3.67-8.37-9.11,0-5,3.08-8.81,8.37-8.81a7.81,7.81,0,0,1,7.78,5.58,16.52,16.52,0,0,1,.59,4.26H313.7c.15,3.52,1.76,4.7,3.82,4.7S320.75,56,320.9,54.49Zm-7-5.14h7.34a3.61,3.61,0,0,0-3.55-3.67h-.12C315.76,45.53,314.29,46.7,313.85,49.35Z"/>
				</g>
			</g>
		</g>
	</g>
</svg>